<svg width="20" height="13" viewBox="0 0 20 13" fill="none" xmlns="http://www.w3.org/2000/svg">
<path d="M5.63134 13C5.12311 13 4.68804 12.8409 4.32612 12.5227C3.96419 12.2044 3.78323 11.8219 3.78323 11.375V3.85937L0.733847 0.670312C0.61064 0.534896 0.587538 0.389323 0.664543 0.233594C0.741548 0.0778646 0.880156 0 1.08037 0H17.6441C18.1523 0 18.5874 0.159115 18.9493 0.477344C19.3112 0.795573 19.4922 1.17812 19.4922 1.625V11.375C19.4922 11.8219 19.3112 12.2044 18.9493 12.5227C18.5874 12.8409 18.1523 13 17.6441 13H5.63134ZM11.9149 8.9375H14.8719C15.1337 8.9375 15.3532 8.85964 15.5303 8.70391C15.7074 8.54818 15.796 8.35521 15.796 8.125C15.796 7.89479 15.7074 7.70182 15.5303 7.54609C15.3532 7.39036 15.1337 7.3125 14.8719 7.3125H9.72029C9.30447 7.3125 9.0157 7.47838 8.85399 7.81016C8.69228 8.14193 8.75773 8.43646 9.05035 8.69375L10.9909 10.4C11.1603 10.549 11.3759 10.6234 11.6377 10.6234C11.8995 10.6234 12.1151 10.549 12.2845 10.4C12.454 10.251 12.5387 10.0615 12.5387 9.83125C12.5387 9.60104 12.454 9.41146 12.2845 9.2625L11.9149 8.9375ZM11.3605 4.0625H8.40351C8.1417 4.0625 7.92223 4.14036 7.74512 4.29609C7.56801 4.45182 7.47946 4.64479 7.47946 4.875C7.47946 5.10521 7.56801 5.29818 7.74512 5.45391C7.92223 5.60964 8.1417 5.6875 8.40351 5.6875H13.5551C13.971 5.6875 14.2597 5.52161 14.4214 5.18984C14.5831 4.85807 14.5177 4.56354 14.2251 4.30625L12.2845 2.6C12.1151 2.45104 11.8995 2.37656 11.6377 2.37656C11.3759 2.37656 11.1603 2.45104 10.9909 2.6C10.8215 2.74896 10.7368 2.93854 10.7368 3.16875C10.7368 3.39896 10.8215 3.58854 10.9909 3.7375L11.3605 4.0625Z" fill="white"/>
</svg>
