<?xml version="1.0" encoding="UTF-8" standalone="no"?>
<svg
   version="1.1"
   viewBox="-5 -10 70.898399 69.101997"
   id="svg3"
   sodipodi:docname="download.svg"
   width="70.898399"
   height="69.101997"
   inkscape:version="1.4 (1:1.4+202410161351+e7c3feb100)"
   xmlns:inkscape="http://www.inkscape.org/namespaces/inkscape"
   xmlns:sodipodi="http://sodipodi.sourceforge.net/DTD/sodipodi-0.dtd"
   xmlns="http://www.w3.org/2000/svg"
   xmlns:svg="http://www.w3.org/2000/svg">
  <defs
     id="defs3" />
  <sodipodi:namedview
     id="namedview3"
     pagecolor="#ffffff"
     bordercolor="#000000"
     borderopacity="0.25"
     inkscape:showpageshadow="2"
     inkscape:pageopacity="0.0"
     inkscape:pagecheckerboard="0"
     inkscape:deskcolor="#d1d1d1"
     inkscape:zoom="6.0074074"
     inkscape:cx="34.45746"
     inkscape:cy="44.028977"
     inkscape:window-width="1920"
     inkscape:window-height="1016"
     inkscape:window-x="0"
     inkscape:window-y="0"
     inkscape:window-maximized="1"
     inkscape:current-layer="svg3" />
  <path
     d="m -4.9996,47.903 c 0,6.1992 5,11.199 11.199,11.199 h 48.5 c 6.1992,0 11.199,-5 11.199,-11.199 V 36.602 c 0,-2.5 -2,-4.5 -4.5,-4.5 -2.5,0 -4.5,2 -4.5,4.5 v 11.301 c 0,1.1992 -1,2.1992 -2.1992,2.1992 h -48.5 C 5,50.1022 4,49.1022 4,47.903 V 36.602 c 0,-2.5 -2,-4.5 -4.5,-4.5 -2.5,0 -4.5,2 -4.5,4.5 z"
     id="path1" />
  <path
     d="m 29.5004,-10 c -2.5,0 -4.5,2 -4.5,4.5 V 26.602 L 14.1994,15.801 c -1.8008,-1.8008 -4.6016,-1.8008 -6.3984,0 -1.8008,1.8008 -1.8008,4.6016 0,6.3984 l 17,17 c 1.1992,1.3008 2.8984,1.8984 4.6992,1.8984 1.8008,0 3.3984,-0.69922 4.6992,-1.8984 l 17,-17 c 1.8008,-1.8008 1.8008,-4.6016 0,-6.3984 -1.8008,-1.8008 -4.6016,-1.8008 -6.3984,0 L 34,26.602 V -5.5 C 34,-8 32,-10 29.5,-10 Z"
     id="path2" />
</svg>
