<svg width="22" height="19" viewBox="0 0 22 19" fill="none" xmlns="http://www.w3.org/2000/svg">
<path d="M8.1 15.0592C8.1 16.4399 6.98071 17.5592 5.6 17.5592C4.21929 17.5592 3.1 16.4399 3.1 15.0592V10.0519C3.1 9.24455 2.44554 8.5901 1.63823 8.5901C1.20735 8.5901 1.01126 8.0522 1.34104 7.77489L8.50639 1.7499C9.94787 0.537833 12.0521 0.537833 13.4936 1.7499L20.659 7.77489C20.9887 8.0522 20.7927 8.5901 20.3618 8.5901C19.5545 8.5901 18.9 9.24456 18.9 10.0519V15.0592C18.9 16.4399 17.7807 17.5592 16.4 17.5592C15.0193 17.5592 13.9 16.4399 13.9 15.0592V13.7324C13.9 12.1307 12.6016 10.8324 11 10.8324C9.39837 10.8324 8.1 12.1307 8.1 13.7324V15.0592Z" stroke="white"/>
</svg>
