<svg width="18" height="16" viewBox="0 0 18 16" fill="none" xmlns="http://www.w3.org/2000/svg">
<path d="M1.59021 14.9321C1.25076 15.0655 0.928294 15.0361 0.622797 14.8441C0.3173 14.6528 0.164551 14.3738 0.164551 14.0071V10.2821C0.164551 10.0488 0.232439 9.84047 0.368216 9.65714C0.503992 9.4738 0.690685 9.35714 0.928294 9.30714C2.81346 8.84752 2.81346 6.16675 0.928294 5.70714C0.690685 5.65714 0.503992 5.54047 0.368216 5.35714C0.232439 5.1738 0.164551 4.96547 0.164551 4.73214V1.00714C0.164551 0.640469 0.3173 0.361136 0.622797 0.169136C0.928294 -0.0221976 1.25076 -0.0511979 1.59021 0.0821354L17.2724 6.58214C17.6967 6.76547 17.9089 7.0738 17.9089 7.50714C17.9089 7.94047 17.6967 8.2488 17.2724 8.43214L1.59021 14.9321Z" fill="white"/>
</svg>
