<svg width="19" height="20" viewBox="0 0 19 20" fill="none" xmlns="http://www.w3.org/2000/svg">
<path d="M17.0163 2.90124H17.1C17.9132 2.90124 18.5 3.49947 18.5 4.13391V17.9952C18.5 18.6297 17.9132 19.2279 17.1 19.2279H1.9C1.08676 19.2279 0.5 18.6297 0.5 17.9952V4.13391C0.5 3.49947 1.08676 2.90124 1.9 2.90124H1.98367C2.73827 2.90124 3.35 2.28952 3.35 1.53491C3.35 1.33259 3.51401 1.16858 3.71633 1.16858H3.88367C4.08599 1.16858 4.25 1.33259 4.25 1.53491C4.25 2.28952 4.86173 2.90124 5.61633 2.90124H13.3837C14.1383 2.90124 14.75 2.28952 14.75 1.53491C14.75 1.33259 14.914 1.16858 15.1163 1.16858H15.2837C15.486 1.16858 15.65 1.33259 15.65 1.53491C15.65 2.28952 16.2617 2.90124 17.0163 2.90124ZM14.1136 17.0513C14.9421 17.0513 15.6136 16.3798 15.6136 15.5513V8.41875C15.6136 7.59032 14.9421 6.91875 14.1136 6.91875H4.88636C4.05794 6.91875 3.38636 7.59032 3.38636 8.41875V15.5513C3.38636 16.3798 4.05794 17.0513 4.88636 17.0513H14.1136Z" stroke="white"/>
</svg>
