<?xml version="1.0" encoding="UTF-8" standalone="no"?>
<svg
   width="17"
   height="14.000394"
   viewBox="0 0 17 14.000394"
   fill="none"
   version="1.1"
   id="svg1"
   sodipodi:docname="share.svg"
   inkscape:version="1.3.2 (1:1.3.2+202311252150+091e20ef0f)"
   xmlns:inkscape="http://www.inkscape.org/namespaces/inkscape"
   xmlns:sodipodi="http://sodipodi.sourceforge.net/DTD/sodipodi-0.dtd"
   xmlns="http://www.w3.org/2000/svg"
   xmlns:svg="http://www.w3.org/2000/svg">
  <defs
     id="defs1" />
  <sodipodi:namedview
     id="namedview1"
     pagecolor="#ffffff"
     bordercolor="#000000"
     borderopacity="0.25"
     inkscape:showpageshadow="2"
     inkscape:pageopacity="0.0"
     inkscape:pagecheckerboard="0"
     inkscape:deskcolor="#d1d1d1"
     inkscape:zoom="49.058824"
     inkscape:cx="8.9994005"
     inkscape:cy="6.5023981"
     inkscape:window-width="1920"
     inkscape:window-height="1016"
     inkscape:window-x="0"
     inkscape:window-y="0"
     inkscape:window-maximized="1"
     inkscape:current-layer="svg1" />
  <path
     d="m 17,2.3331329 c 2.9e-5,0.6482003 -0.247822,1.1991168 -0.743592,1.6528496 -0.49587,0.4537414 -1.097955,0.6806412 -1.806255,0.6806872 -0.0992,9.9e-6 -0.202001,-0.00651 -0.308602,-0.019428 -0.105901,-0.012955 -0.201402,-0.032391 -0.286403,-0.05831 l -3.484641,5.4835573 c 0.21249,0.22038 0.378833,0.466642 0.498948,0.738857 0.120718,0.272212 0.181137,0.557398 0.181157,0.855548 2.8e-5,0.648141 -0.247822,1.199086 -0.743592,1.652823 C 9.8111693,13.773454 9.2090942,14.000346 8.5007642,14.000393 7.7924344,14.000476 7.1903295,13.773626 6.6944696,13.319955 6.1986082,12.866285 5.9506538,12.31537 5.9506112,11.66723 5.9505904,11.36908 6.0106432,11.083885 6.1307552,10.811658 6.2514378,10.53943 6.4180214,10.293119 6.6305067,10.072735 L 3.1451479,4.5896335 C 3.0601486,4.615556 2.964669,4.6350102 2.8587022,4.6479862 2.7521774,4.6609556 2.6493228,4.6674531 2.5501532,4.6674588 1.8418231,4.667496 1.2397181,4.440676 0.74385876,3.9869985 0.24799798,3.5333291 4.3175454e-5,2.9824468 0,2.334247 -4.2454546e-5,1.6861468 0.24783875,1.1352308 0.74364153,0.68149812 1.2394414,0.22776541 1.8415173,8.2600613e-4 2.5498474,7.7964613e-4 3.2581773,7.3339613e-4 3.8602822,0.22759474 4.3561422,0.6812617 4.8520016,1.1349294 5.0999578,1.685813 5.1000005,2.3339128 5.1000194,2.6321132 5.0396886,2.9173167 4.9190061,3.1895253 4.7988936,3.4617322 4.6325905,3.7080436 4.4201045,3.9284573 l 3.4853593,5.4830818 c 0.084998,-0.025922 0.180477,-0.045387 0.2864459,-0.058353 0.106529,-0.012979 0.2093785,-0.019467 0.3085487,-0.019472 0.09917,-6.7e-6 0.201731,0.00651 0.3077017,0.019433 0.1065308,0.012951 0.2023018,0.032396 0.2873037,0.058314 L 12.580104,3.927923 C 12.3676,3.7075272 12.200972,3.4612489 12.080256,3.1890555 11.960138,2.9168635 11.90002,2.6316671 11.899999,2.3334673 11.899972,1.6853671 12.147822,1.1344508 12.643692,0.68071808 13.139463,0.22698614 13.741547,4.6586134e-5 14.449847,0 c 0.7083,-4.3073866e-5 1.310415,0.22681421 1.806344,0.68048167 C 16.752022,1.1341486 16.999958,1.6850328 17,2.3331329 Z"
     fill="white"
     id="path1"
     style="fill:#ffffff" />
</svg>
