<svg width="150" height="72" viewBox="0 0 150 72" fill="none" xmlns="http://www.w3.org/2000/svg">
<path d="M-32.1401 13.2467C-9.13014 13.6983 20.5799 49.6836 55.5099 50.6267C90.4299 51.5698 87.3799 75.5467 99.3299 76.0913" stroke="black" stroke-opacity="0.6" stroke-width="2"/>
<path d="M-6.75 39.6013C14.09 39.0036 31.71 1.17191 71.5 1.33131C111.29 1.49072 125.61 74.1918 149.75 78.2167" stroke="black" stroke-opacity="0.6" stroke-width="2"/>
<path d="M-31.48 60.7621C-10.2 60.3636 8.79002 26.8757 49.75 26.9421C90.71 27.0085 107.6 86.9308 130.98 89.096" stroke="black" stroke-opacity="0.6" stroke-width="2"/>
<path d="M-14.3701 52.4067C6.97988 51.7027 25.2299 11.4269 65.2999 11.4667C105.37 11.5066 121.75 73.2088 144.97 75.653" stroke="black" stroke-opacity="0.6" stroke-width="2"/>
<path d="M-15.6899 29.7847C-1.77994 29.8113 11.8201 40.9164 39.3301 40.9031C66.8301 40.9164 66.0001 29.5191 94.3401 29.7847C122.69 30.0504 133.04 75.1614 149.36 77.1806" stroke="#81BDDE" stroke-width="2"/>
</svg>
