<?xml version="1.0" encoding="UTF-8" standalone="no"?>
<svg
   version="1.1"
   viewBox="-5 -10 23.099043 23.097696"
   id="svg2"
   sodipodi:docname="noun-support-7287566.svg"
   width="23.099043"
   height="23.097696"
   inkscape:version="1.3.2 (1:1.3.2+202311252150+091e20ef0f)"
   xmlns:inkscape="http://www.inkscape.org/namespaces/inkscape"
   xmlns:sodipodi="http://sodipodi.sourceforge.net/DTD/sodipodi-0.dtd"
   xmlns="http://www.w3.org/2000/svg"
   xmlns:svg="http://www.w3.org/2000/svg">
  <defs
     id="defs2">
    <rect
       x="62.280399"
       y="140.23283"
       width="93.624481"
       height="33.43655"
       id="rect3" />
  </defs>
  <sodipodi:namedview
     id="namedview2"
     pagecolor="#ffffff"
     bordercolor="#000000"
     borderopacity="0.25"
     inkscape:showpageshadow="2"
     inkscape:pageopacity="0.0"
     inkscape:pagecheckerboard="0"
     inkscape:deskcolor="#d1d1d1"
     inkscape:zoom="12.355556"
     inkscape:cx="7.6483813"
     inkscape:cy="21.205036"
     inkscape:window-width="1920"
     inkscape:window-height="1016"
     inkscape:window-x="0"
     inkscape:window-y="0"
     inkscape:window-maximized="1"
     inkscape:current-layer="svg2" />
  <path
     d="M 15.37945,-0.42165583 V -1.1687498 c 0,-4.871385 -3.960843,-8.83125 -8.83125,-8.83125 -4.871385,-9.552e-4 -8.83125,3.959865 -8.83125,8.83125 v 0.74709397 C -3.83168,-0.10926383 -5,1.2635922 -5,2.9067252 v 3.397349 c 0,1.875378 1.521898,3.39735 3.397349,3.39735 h 1.358525 c 1.120628,0 2.037773,-0.917145 2.037773,-2.037774 v -6.1143 c 0,-1.12062903 -0.917145,-2.03777403 -2.037773,-2.03777403 h -0.67925 V -1.1676738 c 0,-4.123239 3.349413,-7.472897 7.472897,-7.472897 4.123484,0 7.472897,3.349413 7.472897,7.472897 v 0.67924997 h -0.67925 c -1.120628,0 -2.037773,0.917145 -2.037773,2.03777403 v 6.1143 c 0,1.120629 0.917145,2.037774 2.037773,2.037774 v 1.3585238 c 0,0.373535 -0.305714,0.67925 -0.679249,0.67925 h -6.1143 c -0.373535,0 -0.67925,0.305715 -0.67925,0.679249 0,0.373535 0.305715,0.67925 0.67925,0.67925 h 6.1143 c 1.120629,0 2.037774,-0.917145 2.037774,-2.037774 V 9.7013992 c 1.875378,0 3.397349,-1.521898 3.397349,-3.397349 v -3.39735 c 0,-1.637483 -1.168394,-3.00945803 -2.71695,-3.32838003 z M 0.4339,1.5482982 v 6.1143 c 0,0.373535 -0.305715,0.67925 -0.679249,0.67925 h -1.358524 c -1.120629,0 -2.037774,-0.917145 -2.037774,-2.037774 v -3.397349 c 0,-1.120629 0.917145,-2.03777403 2.037774,-2.03777403 h 1.358524 c 0.373534,0 0.679249,0.30571503 0.679249,0.67925003 z m 16.305126,4.755703 c 0,1.120629 -0.917145,2.037774 -2.037774,2.037774 h -1.358524 c -0.373535,0 -0.67925,-0.305715 -0.67925,-0.67925 v -6.1143 c 0,-0.373535 0.305715,-0.67925003 0.67925,-0.67925003 h 1.358524 c 1.120629,0 2.037774,0.91714503 2.037774,2.03777403 z"
     id="path1"
     style="stroke-width:0.244572;fill:#ffffff" />
  <text
     xml:space="preserve"
     transform="translate(-48.455879,-58.453101)"
     id="text3"
     style="font-size:28px;white-space:pre;shape-inside:url(#rect3);display:inline;fill:none;stroke:#ffffff;stroke-width:4;stroke-linecap:round;stroke-linejoin:round" />
</svg>
