<?xml version="1.0" encoding="UTF-8" standalone="no"?>
<svg
   width="19.027805"
   height="22.031801"
   viewBox="0 0 19.027806 22.031803"
   fill="none"
   version="1.1"
   id="svg1"
   sodipodi:docname="share.svg"
   inkscape:version="1.3.2 (1:1.3.2+202311252150+091e20ef0f)"
   xmlns:inkscape="http://www.inkscape.org/namespaces/inkscape"
   xmlns:sodipodi="http://sodipodi.sourceforge.net/DTD/sodipodi-0.dtd"
   xmlns="http://www.w3.org/2000/svg"
   xmlns:svg="http://www.w3.org/2000/svg">
  <defs
     id="defs1" />
  <sodipodi:namedview
     id="namedview1"
     pagecolor="#ffffff"
     bordercolor="#000000"
     borderopacity="0.25"
     inkscape:showpageshadow="2"
     inkscape:pageopacity="0.0"
     inkscape:pagecheckerboard="0"
     inkscape:deskcolor="#d1d1d1"
     inkscape:zoom="31.038266"
     inkscape:cx="3.7534313"
     inkscape:cy="10.857565"
     inkscape:window-width="1920"
     inkscape:window-height="1016"
     inkscape:window-x="0"
     inkscape:window-y="0"
     inkscape:window-maximized="1"
     inkscape:current-layer="svg1" />
  <path
     d="m 19.027801,16.153448 c 0.0012,0.592468 -0.230415,1.10012 -0.694677,1.522951 -0.464268,0.422817 -1.022942,0.634895 -1.676039,0.636192 l -10.9843801,0.02182 -4.653866,3.564051 c -0.19762998,0.144018 -0.41033668,0.171372 -0.63811848,0.08206 -0.2277819,-0.08931 -0.3419032,-0.250669 -0.342368,-0.484064 L 4.7155047e-6,2.1874185 C -0.00120508,1.5950183 0.23037302,1.0873586 0.69463902,0.66453647 1.1589022,0.24170927 1.7175967,0.02960317 2.3707247,0.02830807 L 16.620714,6.3742156e-6 C 17.273814,-0.00133363 17.833332,0.20859967 18.29927,0.62957447 18.765214,1.0505458 18.998811,1.5572863 18.99999,2.1496853 Z M 13.075765,8.8401648 13.068865,5.3931697 C 13.068312,5.0879705 12.954004,4.8322968 12.725994,4.6262486 12.497988,4.4202982 12.215679,4.3175617 11.879282,4.31823 11.542781,4.3188978 11.260988,4.4227566 11.033797,4.6296099 10.806604,4.8365594 10.693318,5.0926885 10.693922,5.3978857 l 0.01193,6.0053873 c 9.64e-4,0.484801 0.244034,0.820919 0.729305,1.008467 0.485273,0.187548 0.915622,0.110391 1.290942,-0.231474 l 2.489305,-2.2670502 c 0.217302,-0.197936 0.32561,-0.449546 0.325,-0.754747 -6.08e-4,-0.305202 -0.109906,-0.556382 -0.327995,-0.7533505 -0.218093,-0.1970697 -0.49539,-0.295316 -0.831888,-0.2946455 -0.3364,6.686e-4 -0.613305,0.1000187 -0.83061,0.2979505 z m -7.1237233,0.660551 0.00686,3.4470392 c 6.068e-4,0.305209 0.1149156,0.560825 0.3429249,0.766842 0.228027,0.206001 0.5102533,0.308687 0.8467127,0.308022 0.3364572,-6.63e-4 0.618283,-0.104467 0.8454732,-0.311378 0.227196,-0.206925 0.3404907,-0.462992 0.3398847,-0.768199 L 8.3219712,6.9376026 C 8.3209932,6.4528059 8.0778761,6.1166883 7.592601,5.9291505 7.1073402,5.7416143 6.677021,5.81877 6.3016584,6.1606153 l -2.4892518,2.267151 c -0.2173142,0.1978345 -0.325666,0.4494465 -0.3250627,0.7546455 6.091e-4,0.3052 0.1099555,0.556385 0.3280565,0.753453 0.2181032,0.1969662 0.4953781,0.2952142 0.8318375,0.2945502 0.3364564,-6.64e-4 0.6133414,-0.10002 0.8306584,-0.2978492 z"
     fill="#ffffff"
     id="path1"
     style="fill:#ffffff" />
</svg>
