<?xml version="1.0" encoding="UTF-8" standalone="no"?>
<svg
   width="22"
   height="19"
   viewBox="0 0 22 19"
   fill="none"
   version="1.1"
   id="svg1"
   sodipodi:docname="home_rotate.svg"
   inkscape:version="1.3.2 (1:1.3.2+202311252150+091e20ef0f)"
   xmlns:inkscape="http://www.inkscape.org/namespaces/inkscape"
   xmlns:sodipodi="http://sodipodi.sourceforge.net/DTD/sodipodi-0.dtd"
   xmlns="http://www.w3.org/2000/svg"
   xmlns:svg="http://www.w3.org/2000/svg">
  <defs
     id="defs1" />
  <sodipodi:namedview
     id="namedview1"
     pagecolor="#ffffff"
     bordercolor="#000000"
     borderopacity="0.25"
     inkscape:showpageshadow="2"
     inkscape:pageopacity="0.0"
     inkscape:pagecheckerboard="0"
     inkscape:deskcolor="#d1d1d1"
     inkscape:zoom="10.973684"
     inkscape:cx="4.3285373"
     inkscape:cy="6.7434054"
     inkscape:window-width="1920"
     inkscape:window-height="1016"
     inkscape:window-x="0"
     inkscape:window-y="0"
     inkscape:window-maximized="1"
     inkscape:current-layer="svg1" />
  <path
     d="m 11.977,14.366267 c 0.976302,0.976302 0.976309,2.559225 0,3.535534 -0.97631,0.976309 -2.5592321,0.976302 -3.5355343,0 L 4.9007699,14.361105 c -0.5708821,-0.570882 -1.4964212,-0.570875 -2.0672756,-2e-5 -0.3046782,0.304678 -0.8236879,0.06298 -0.786586,-0.366296 L 2.8532646,4.6678103 C 3.015484,2.7914692 4.5033995,1.3035537 6.3797547,1.1413201 L 15.706769,0.33492849 c 0.429221,-0.037045 0.670981,0.4819007 0.366289,0.78659301 -0.570847,0.5708473 -0.570876,1.4964218 -1e-6,2.0672969 l 3.540696,3.5406957 c 0.976302,0.9763024 0.976302,2.5592313 0,3.5355339 -0.976302,0.976302 -2.559232,0.976302 -3.535534,0 L 15.14003,9.3268584 c -1.132573,-1.1325726 -2.968717,-1.1325018 -4.101219,0 -1.1325241,1.1325236 -1.1325741,2.9686466 -1e-6,4.1012196 z"
     stroke="#ffffff"
     id="path1"
     style="fill:none;stroke:#ffffff;stroke-opacity:1" />
</svg>
