<svg width="133" height="78" viewBox="0 0 133 78" fill="none" xmlns="http://www.w3.org/2000/svg">
<path d="M-10.5781 1.54028C5.62244 1.9567 17.6546 31.5224 50.9052 33.0403C84.147 34.5582 95.2597 78.2821 112.38 79.5179" stroke="black" stroke-opacity="0.58" stroke-width="2"/>
<path d="M-26.5425 31.4552C-5.06141 31.8582 23.6267 68.7045 55.7651 69.2552C87.8948 69.806 86.2572 86.2746 96.9146 86.4224" stroke="black" stroke-opacity="0.58" stroke-width="2"/>
<path d="M-11.1211 3.25968C0.954895 3.28655 12.7419 14.5164 36.6049 14.503C60.4766 14.503 58.2436 1.82237 84.3396 3.25968C110.436 4.697 115.357 73.0701 132.066 79.5582" stroke="#81BDDE" stroke-width="2"/>
<path d="M-4.59717 11.2656C12.9345 11.8835 26.1226 47.9238 61.0633 49.0656C95.9952 50.2074 109.306 84.2731 126.715 84.797" stroke="black" stroke-opacity="0.58" stroke-width="2"/>
<path d="M-21.98 43.8135C-5.25399 44.8478 14.7034 86.3687 38.7678 87.0135C62.8234 87.6583 61.5098 91.3791 69.1372 91.3791" stroke="black" stroke-opacity="0.58" stroke-width="2"/>
</svg>
