<?xml version="1.0" encoding="UTF-8" standalone="no"?>
<svg
   width="133"
   height="63"
   viewBox="0 0 133 63"
   fill="none"
   version="1.1"
   id="svg5"
   sodipodi:docname="speaker_background.svg"
   inkscape:version="1.3.2 (1:1.3.2+202311252150+091e20ef0f)"
   xmlns:inkscape="http://www.inkscape.org/namespaces/inkscape"
   xmlns:sodipodi="http://sodipodi.sourceforge.net/DTD/sodipodi-0.dtd"
   xmlns="http://www.w3.org/2000/svg"
   xmlns:svg="http://www.w3.org/2000/svg">
  <defs
     id="defs5" />
  <sodipodi:namedview
     id="namedview5"
     pagecolor="#ffffff"
     bordercolor="#000000"
     borderopacity="0.25"
     inkscape:showpageshadow="2"
     inkscape:pageopacity="0.0"
     inkscape:pagecheckerboard="0"
     inkscape:deskcolor="#d1d1d1"
     inkscape:zoom="3.0756487"
     inkscape:cx="109.73295"
     inkscape:cy="22.434292"
     inkscape:window-width="1920"
     inkscape:window-height="1016"
     inkscape:window-x="0"
     inkscape:window-y="0"
     inkscape:window-maximized="1"
     inkscape:current-layer="svg5" />
  <path
     d="M 31.051449,71.280632 C 49.279947,62.941186 35.732788,31.549513 65.288215,30.815508 94.851083,30.081503 112.11627,49.099154 133.76898,50.237696"
     stroke="#000000"
     stroke-opacity="0.58"
     stroke-width="2"
     id="path1" />
  <path
     d="M 16.450516,68.604409 C 49.520615,55.681307 35.138027,6.9115328 80.784426,2.5395313 126.43093,-1.8324701 125.33921,18.422893 145.11887,19.282847"
     stroke="#81bdde"
     stroke-width="2"
     id="path2" />
  <path
     d="M 31.961928,65.389802 C 48.54965,60.267662 23.404597,44.269197 66.183599,36.596683 108.96972,28.924269 109.3843,10.654018 134.63428,7.7983061"
     stroke="#000000"
     stroke-opacity="0.58"
     stroke-width="2"
     id="path3" />
  <path
     d="M 10.602829,65.657694 C 33.060987,56.476986 14.809954,20.908993 53.840845,19.459676 92.871735,18.010359 116.36836,33.821299 140.31719,34.193749"
     stroke="#000000"
     stroke-opacity="0.58"
     stroke-width="2"
     id="path4" />
  <path
     d="M -12.467905,70.350046 C 24.821146,59.2529 13.256078,11.205214 64.688729,7.6454757 116.12138,4.0856978 120.30539,20.671249 141.84588,21.038149"
     stroke="#000000"
     stroke-opacity="0.58"
     stroke-width="2"
     id="path5" />
</svg>
