<svg width="157" height="77" viewBox="0 0 157 77" fill="none" xmlns="http://www.w3.org/2000/svg">
<path d="M54.3613 83.1433C75.3729 74.806 79.9939 4.3588 110.258 3.29313C140.512 2.22745 151.088 28.8442 166.144 29.3331" stroke="black" stroke-opacity="0.58" stroke-width="2"/>
<path d="M20.1484 80.5731C41.3552 72.8 45.4013 4.04536 77.6508 2.11461C109.9 0.183868 106.397 12.6209 135.153 12.6083C163.91 12.6083 178.098 2.15223 192.656 2.11461" stroke="black" stroke-opacity="0.58" stroke-width="2"/>
<path d="M1.01367 89.951C26.8523 87.5689 42.1472 29.0698 89.6157 27.7158C137.084 26.3617 155.774 10.9659 178.218 10.9158" stroke="black" stroke-opacity="0.58" stroke-width="2"/>
<path d="M6.23145 87.3809C25.0409 84.6352 35.3894 35.6268 67.1508 35.188C98.923 34.7492 97.6213 45.6943 128.081 45.6943C158.541 45.6943 173.597 35.2131 189 35.188" stroke="black" stroke-opacity="0.58" stroke-width="2"/>
<path d="M22.0469 83.7952C39.5004 79.7958 46.5079 28.9069 74.4726 28.1797C102.437 27.4525 100.691 38.686 126.898 38.686C153.117 38.686 166.025 28.2173 179.324 28.1797" stroke="#81BDDE" stroke-width="2"/>
</svg>
