<?xml version="1.0" encoding="UTF-8" standalone="no"?>
<svg
   version="1.1"
   viewBox="-5 -10 23.835003 23.272302"
   id="svg2"
   sodipodi:docname="support_rotate.svg"
   width="23.835003"
   height="23.272303"
   inkscape:version="1.3.2 (1:1.3.2+202311252150+091e20ef0f)"
   xmlns:inkscape="http://www.inkscape.org/namespaces/inkscape"
   xmlns:sodipodi="http://sodipodi.sourceforge.net/DTD/sodipodi-0.dtd"
   xmlns="http://www.w3.org/2000/svg"
   xmlns:svg="http://www.w3.org/2000/svg">
  <defs
     id="defs2">
    <rect
       x="62.280399"
       y="140.23283"
       width="93.624481"
       height="33.43655"
       id="rect3" />
  </defs>
  <sodipodi:namedview
     id="namedview2"
     pagecolor="#ffffff"
     bordercolor="#000000"
     borderopacity="0.25"
     inkscape:showpageshadow="2"
     inkscape:pageopacity="0.0"
     inkscape:pagecheckerboard="0"
     inkscape:deskcolor="#d1d1d1"
     inkscape:zoom="12.355556"
     inkscape:cx="6.8390285"
     inkscape:cy="20.395683"
     inkscape:window-width="1920"
     inkscape:window-height="1016"
     inkscape:window-x="0"
     inkscape:window-y="0"
     inkscape:window-maximized="1"
     inkscape:current-layer="svg2" />
  <path
     d="m 10.601244,-6.888542 -0.528276,-0.5282753 c -3.4445886,-3.4445897 -9.0453749,-3.4438977 -12.4892727,0 -3.4452648,3.443914 -3.4445894,9.0446842 0,12.4892736 l 0.5282752,0.5282752 c -0.8741523,1.3159413 -0.7295235,3.1128241 0.432347,4.2746946 l 2.40228853,2.4022879 c 1.32609247,1.326093 3.47843357,1.326145 4.80457767,1e-6 L 6.711806,11.317093 c 0.7924036,-0.792404 0.7924036,-2.0894429 -7e-7,-2.8818469 L 2.3883423,4.1117831 C 1.5959379,3.3193787 0.29889903,3.3193787 -0.49350462,4.1117824 L -0.9738069,4.5920847 -1.4541092,4.1117824 c -2.9155703,-2.9155702 -2.9157435,-7.6525288 0,-10.5682723 2.9157435,-2.9157435 7.6525288,-2.9157435 10.5682723,0 l 0.4803022,0.4803023 -0.4803022,0.4803023 c -0.7924037,0.7924036 -0.7924037,2.0894425 7e-7,2.8818469 l 4.3234622,4.323463 c 0.792405,0.7924044 2.089444,0.7924044 2.881847,7e-7 l 0.960622,0.9606214 c 0.264129,0.2641291 0.26413,0.6964747 1e-6,0.9606038 l -4.323463,4.323463 c -0.26413,0.2641292 -0.26413,0.6964755 -10e-7,0.9606039 0.264129,0.2641291 0.696475,0.2641291 0.960604,0 l 4.323463,-4.323463 c 0.792405,-0.7924044 0.792405,-2.0894433 0,-2.8818476 L 17.280078,0.74878541 c 1.326092,-1.32609252 1.326144,-3.47843291 0,-4.80457701 L 14.877789,-6.4580809 C 13.719913,-7.6159562 11.923601,-7.7599097 10.603095,-6.8904272 Z M 1.4261121,5.0725256 5.7495751,9.3959881 c 0.2641291,0.26413 0.2641291,0.6964759 7e-7,0.9606039 l -0.9606215,0.960622 c -0.7924044,0.792404 -2.0894433,0.792404 -2.8818477,0 L -0.49518186,8.9149254 c -0.79240434,-0.7924043 -0.79240434,-2.0894433 -2e-8,-2.8818476 L 0.46543963,5.0724562 c 0.2641284,-0.2641284 0.69647477,-0.2641284 0.96060387,8e-7 z M 16.318367,-3.0941498 c 0.792404,0.7924044 0.792404,2.0894433 0,2.88184768 l -0.960622,0.96062153 c -0.264129,0.26412909 -0.696475,0.26412909 -0.960604,0 L 10.073678,-3.5751436 c -0.2641287,-0.2641291 -0.2641287,-0.6964754 0,-0.9606046 l 0.960621,-0.9606215 c 0.792405,-0.7924044 2.089444,-0.7924044 2.881848,0 z"
     id="path1"
     style="fill:#ffffff;stroke-width:0.244572" />
  <text
     xml:space="preserve"
     transform="rotate(-45,-41.14707,89.830676)"
     id="text3"
     style="font-size:28px;white-space:pre;shape-inside:url(#rect3);display:inline;fill:none;stroke:#ffffff;stroke-width:4;stroke-linecap:round;stroke-linejoin:round" />
</svg>
