<?xml version="1.0" encoding="UTF-8"?><svg id="Layer_2" xmlns="http://www.w3.org/2000/svg" viewBox="0 0 44.97 44.16"><g id="Layer_1-2"><path d="M40.45,0H4.52C2.03,0,0,2.03,0,4.52v35.12c0,2.5,2.03,4.52,4.52,4.52h35.92c2.5,0,4.52-2.03,4.52-4.52V4.52c0-2.5-2.03-4.52-4.52-4.52ZM4.52,2h35.92c1.39,0,2.52,1.13,2.52,2.52v20.11l-9.28-8.98c-.39-.37-1-.38-1.39,0l-13.16,12.62-4.37-4.51c-.37-.38-.97-.41-1.37-.06l-11.4,9.79V4.52c0-1.39,1.13-2.52,2.52-2.52ZM2,39.64v-3.52l11.99-10.29,4.4,4.54h0s0,0,0,0l11.43,11.79H4.52c-1.39,0-2.52-1.13-2.52-2.52ZM40.45,42.16h-7.84l-12.08-12.46,12.46-11.95,9.98,9.66v12.22c0,1.39-1.13,2.52-2.52,2.52Z" style="fill:currentColor; stroke-width:0px;"/><path d="M10.93,15.28c2.59,0,4.7-2.1,4.7-4.7s-2.1-4.7-4.7-4.7-4.7,2.1-4.7,4.7c0,2.59,2.1,4.69,4.7,4.7ZM10.93,7.89c1.49,0,2.7,1.21,2.7,2.7s-1.21,2.7-2.7,2.7-2.7-1.21-2.7-2.7h0c0-1.49,1.21-2.69,2.7-2.7Z" style="fill:currentColor; stroke-width:0px;"/></g></svg>