<?xml version="1.0" encoding="UTF-8"?><svg id="Layer_2" xmlns="http://www.w3.org/2000/svg" viewBox="0 0 490 395"><g id="Layer_1-2"><path d="M485,10H150c-2.76,0-5-2.24-5-5s2.24-5,5-5h335c2.76,0,5,2.24,5,5s-2.24,5-5,5Z" style="fill:currentColor; stroke-width:0px;"/><path d="M485,107H150c-2.76,0-5-2.24-5-5s2.24-5,5-5h335c2.76,0,5,2.24,5,5s-2.24,5-5,5Z" style="fill:currentColor; stroke-width:0px;"/><path d="M485,155H5c-2.76,0-5-2.24-5-5s2.24-5,5-5h480c2.76,0,5,2.24,5,5s-2.24,5-5,5Z" style="fill:currentColor; stroke-width:0px;"/><path d="M485,59H150c-2.76,0-5-2.24-5-5s2.24-5,5-5h335c2.76,0,5,2.24,5,5s-2.24,5-5,5Z" style="fill:currentColor; stroke-width:0px;"/><path d="M485,203H5c-2.76,0-5-2.24-5-5s2.24-5,5-5h480c2.76,0,5,2.24,5,5s-2.24,5-5,5Z" style="fill:currentColor; stroke-width:0px;"/><path d="M485,300H5c-2.76,0-5-2.24-5-5s2.24-5,5-5h480c2.76,0,5,2.24,5,5s-2.24,5-5,5Z" style="fill:currentColor; stroke-width:0px;"/><path d="M485,348H5c-2.76,0-5-2.24-5-5s2.24-5,5-5h480c2.76,0,5,2.24,5,5s-2.24,5-5,5Z" style="fill:currentColor; stroke-width:0px;"/><path d="M266.71,395H5.29c-2.76,0-5-2.24-5-5s2.24-5,5-5h261.42c2.76,0,5,2.24,5,5s-2.24,5-5,5Z" style="fill:currentColor; stroke-width:0px;"/><path d="M485,252H5c-2.76,0-5-2.24-5-5s2.24-5,5-5h480c2.76,0,5,2.24,5,5s-2.24,5-5,5Z" style="fill:currentColor; stroke-width:0px;"/><path d="M115,10H5C2.24,10,0,7.76,0,5S2.24,0,5,0h110c2.76,0,5,2.24,5,5s-2.24,5-5,5Z" style="fill:currentColor; stroke-width:0px;"/><path d="M60,107.11c-2.76,0-5-2.24-5-5V5c0-2.76,2.24-5,5-5s5,2.24,5,5v97.11c0,2.76-2.24,5-5,5Z" style="fill:currentColor; stroke-width:0px;"/></g></svg>